<svg width="16" height="22" viewBox="0 0 16 22" fill="none" xmlns="http://www.w3.org/2000/svg">
<path d="M5.2 12.73C5.01933 12.537 4.76956 12.4233 4.50532 12.4139C4.24108 12.4046 3.98389 12.5002 3.79 12.68C2.60767 13.7214 1.65882 15.001 1.00566 16.4349C0.352503 17.8687 0.00979282 19.4244 0 21C0 21.2652 0.105357 21.5196 0.292893 21.7071C0.48043 21.8946 0.734784 22 1 22C1.26522 22 1.51957 21.8946 1.70711 21.7071C1.89464 21.5196 2 21.2652 2 21C2.00687 19.6983 2.2914 18.413 2.83461 17.23C3.37782 16.047 4.16719 14.9936 5.15 14.14C5.34304 13.9593 5.45668 13.7096 5.46605 13.4453C5.47542 13.1811 5.37976 12.9239 5.2 12.73ZM15.37 17.37C14.9975 16.2922 14.4575 15.2798 13.77 14.37C12.7412 13.0372 11.4853 11.8963 10.06 11C12.3 9.57 16 6.4 16 1C16 0.734784 15.8946 0.48043 15.7071 0.292893C15.5196 0.105357 15.2652 0 15 0C14.7348 0 14.4804 0.105357 14.2929 0.292893C14.1054 0.48043 14 0.734784 14 1C14 6.4 9.41 9.17 8 9.89C7.02926 9.37263 6.12582 8.73787 5.31 8H8C8.26522 8 8.51957 7.89464 8.70711 7.70711C8.89464 7.51957 9 7.26522 9 7C9 6.73478 8.89464 6.48043 8.70711 6.29289C8.51957 6.10536 8.26522 6 8 6H3.55C3.1382 5.37554 2.80248 4.70412 2.55 4H11C11.2652 4 11.5196 3.89464 11.7071 3.70711C11.8946 3.51957 12 3.26522 12 3C12 2.73478 11.8946 2.48043 11.7071 2.29289C11.5196 2.10536 11.2652 2 11 2H2.06C2.01949 1.66821 1.99945 1.33425 2 1C2 0.734784 1.89464 0.48043 1.70711 0.292893C1.51957 0.105357 1.26522 0 1 0C0.734784 0 0.48043 0.105357 0.292893 0.292893C0.105357 0.48043 0 0.734784 0 1C0 8.57 7.3 11.79 7.61 11.92C8.73499 12.4606 9.77579 13.1612 10.7 14H8C7.73478 14 7.48043 14.1054 7.29289 14.2929C7.10536 14.4804 7 14.7348 7 15C7 15.2652 7.10536 15.5196 7.29289 15.7071C7.48043 15.8946 7.73478 16 8 16H12.43C12.8446 16.6229 13.1804 17.2946 13.43 18H5C4.73478 18 4.48043 18.1054 4.29289 18.2929C4.10536 18.4804 4 18.7348 4 19C4 19.2652 4.10536 19.5196 4.29289 19.7071C4.48043 19.8946 4.73478 20 5 20H13.94C13.9802 20.3318 14.0003 20.6658 14 21C14 21.2652 14.1054 21.5196 14.2929 21.7071C14.4804 21.8946 14.7348 22 15 22C15.2652 22 15.5196 21.8946 15.7071 21.7071C15.8946 21.5196 16 21.2652 16 21C16.0036 20.2643 15.9299 19.5303 15.78 18.81C15.6826 18.3197 15.5454 17.8381 15.37 17.37Z" fill="#3EB1C8"/>
</svg>
