<svg width="18" height="20" viewBox="0 0 18 20" fill="none" xmlns="http://www.w3.org/2000/svg">
<path d="M10.0452 10H5.04521C4.78 10 4.52564 10.1054 4.33811 10.2929C4.15057 10.4804 4.04522 10.7348 4.04522 11C4.04522 11.2652 4.15057 11.5196 4.33811 11.7071C4.52564 11.8946 4.78 12 5.04521 12H10.0452C10.3104 12 10.5648 11.8946 10.7523 11.7071C10.9399 11.5196 11.0452 11.2652 11.0452 11C11.0452 10.7348 10.9399 10.4804 10.7523 10.2929C10.5648 10.1054 10.3104 10 10.0452 10ZM11.0452 18H3.04522C2.78 18 2.52564 17.8946 2.33811 17.7071C2.15057 17.5196 2.04522 17.2652 2.04522 17V3C2.04522 2.73478 2.15057 2.48043 2.33811 2.29289C2.52564 2.10536 2.78 2 3.04522 2H8.04521V5C8.04521 5.79565 8.36129 6.55871 8.92389 7.12132C9.4865 7.68393 10.2496 8 11.0452 8H14.0452V9C14.0452 9.26522 14.1506 9.51957 14.3381 9.70711C14.5256 9.89464 14.78 10 15.0452 10C15.3104 10 15.5648 9.89464 15.7523 9.70711C15.9399 9.51957 16.0452 9.26522 16.0452 9V7C16.0496 6.98024 16.0496 6.95976 16.0452 6.94C16.0367 6.84679 16.0131 6.75559 15.9752 6.67V6.58C15.9271 6.47718 15.863 6.38267 15.7852 6.3L9.78522 0.3C9.70035 0.220265 9.60221 0.155965 9.49522 0.11C9.49522 0.11 9.44521 0.11 9.41521 0.11C9.31667 0.0529776 9.20799 0.0156205 9.09521 0H3.09521C2.29957 0 1.5365 0.316071 0.973895 0.87868C0.411285 1.44129 0.0952148 2.20435 0.0952148 3V17C0.0952148 17.7956 0.411285 18.5587 0.973895 19.1213C1.5365 19.6839 2.29957 20 3.09521 20H11.0952C11.3604 20 11.6148 19.8946 11.8023 19.7071C11.9899 19.5196 12.0952 19.2652 12.0952 19C12.0952 18.7348 11.9899 18.4804 11.8023 18.2929C11.6148 18.1054 11.3604 18 11.0952 18H11.0452ZM10.0452 3.41L12.6252 6H11.0452C10.78 6 10.5256 5.89464 10.3381 5.70711C10.1506 5.51957 10.0452 5.26522 10.0452 5V3.41ZM15.6152 18.29C15.5677 18.247 15.5176 18.2069 15.4652 18.17C15.3553 18.0986 15.2333 18.0477 15.1052 18.02C14.9446 17.9878 14.7785 17.9956 14.6215 18.0427C14.4646 18.0898 14.3216 18.1747 14.2052 18.29C14.1115 18.383 14.0371 18.4936 13.9863 18.6154C13.9356 18.7373 13.9094 18.868 13.9094 19C13.9094 19.132 13.9356 19.2627 13.9863 19.3846C14.0371 19.5064 14.1115 19.617 14.2052 19.71C14.3915 19.8947 14.6429 19.9989 14.9052 20C15.0698 20.0008 15.2321 19.961 15.3777 19.884C15.5232 19.8071 15.6475 19.6954 15.7395 19.5589C15.8315 19.4223 15.8884 19.2652 15.9051 19.1014C15.9218 18.9377 15.8978 18.7723 15.8352 18.62C15.7809 18.4985 15.7065 18.3869 15.6152 18.29ZM10.0452 14H5.04521C4.78 14 4.52564 14.1054 4.33811 14.2929C4.15057 14.4804 4.04522 14.7348 4.04522 15C4.04522 15.2652 4.15057 15.5196 4.33811 15.7071C4.52564 15.8946 4.78 16 5.04521 16H10.0452C10.3104 16 10.5648 15.8946 10.7523 15.7071C10.9399 15.5196 11.0452 15.2652 11.0452 15C11.0452 14.7348 10.9399 14.4804 10.7523 14.2929C10.5648 14.1054 10.3104 14 10.0452 14ZM14.9052 11C14.3783 10.9997 13.8605 11.1381 13.4041 11.4014C12.9477 11.6648 12.5687 12.0437 12.3052 12.5C12.2396 12.6143 12.197 12.7403 12.1801 12.871C12.1632 13.0017 12.1721 13.1344 12.2065 13.2616C12.2408 13.3888 12.2999 13.508 12.3803 13.6124C12.4608 13.7168 12.561 13.8043 12.6752 13.87C12.7895 13.9357 12.9155 13.9782 13.0462 13.9951C13.1769 14.0121 13.3096 14.0031 13.4368 13.9687C13.5641 13.9344 13.6833 13.8753 13.7876 13.7949C13.892 13.7144 13.9796 13.6143 14.0452 13.5C14.1331 13.3478 14.2596 13.2214 14.4119 13.1336C14.5642 13.0458 14.737 12.9998 14.9127 13C15.0885 13.0003 15.2612 13.0469 15.4132 13.1351C15.5652 13.2234 15.6913 13.3501 15.7788 13.5026C15.8662 13.6551 15.9119 13.828 15.9112 14.0038C15.9106 14.1796 15.8636 14.3521 15.775 14.5039C15.6864 14.6558 15.5594 14.7816 15.4067 14.8687C15.254 14.9558 15.081 15.0011 14.9052 15C14.64 15 14.3856 15.1054 14.1981 15.2929C14.0106 15.4804 13.9052 15.7348 13.9052 16C13.9052 16.2652 14.0106 16.5196 14.1981 16.7071C14.3856 16.8946 14.64 17 14.9052 17C15.7009 17 16.4639 16.6839 17.0265 16.1213C17.5891 15.5587 17.9052 14.7956 17.9052 14C17.9052 13.2044 17.5891 12.4413 17.0265 11.8787C16.4639 11.3161 15.7009 11 14.9052 11ZM5.04521 8H6.04521C6.31043 8 6.56479 7.89464 6.75232 7.70711C6.93986 7.51957 7.04521 7.26522 7.04521 7C7.04521 6.73478 6.93986 6.48043 6.75232 6.29289C6.56479 6.10536 6.31043 6 6.04521 6H5.04521C4.78 6 4.52564 6.10536 4.33811 6.29289C4.15057 6.48043 4.04522 6.73478 4.04522 7C4.04522 7.26522 4.15057 7.51957 4.33811 7.70711C4.52564 7.89464 4.78 8 5.04521 8Z" fill="#3EB1C8"/>
</svg>
