<svg width="20" height="20" viewBox="0 0 20 20" fill="none" xmlns="http://www.w3.org/2000/svg">
<path d="M17 6C16.293 5.99823 15.6082 6.24685 15.0669 6.70179C14.5257 7.15673 14.1631 7.7886 14.0433 8.4854C13.9234 9.1822 14.0542 9.89892 14.4124 10.5085C14.7706 11.1181 15.333 11.5812 16 11.8157V13.5C16 14.6935 15.5259 15.8381 14.682 16.682C13.8381 17.5259 12.6935 18 11.5 18C10.3065 18 9.16193 17.5259 8.31802 16.682C7.47411 15.8381 7 14.6935 7 13.5V12.9097C8.39662 12.6727 9.66448 11.9496 10.5795 10.8681C11.4944 9.78669 11.9976 8.41658 12 7V1C12 0.734784 11.8946 0.48043 11.7071 0.292893C11.5196 0.105357 11.2652 0 11 0H9C8.73478 0 8.48043 0.105357 8.29289 0.292893C8.10536 0.48043 8 0.734784 8 1C8 1.26522 8.10536 1.51957 8.29289 1.70711C8.48043 1.89464 8.73478 2 9 2H10V7C10 8.06087 9.57857 9.07828 8.82843 9.82843C8.07828 10.5786 7.06087 11 6 11C4.93913 11 3.92172 10.5786 3.17157 9.82843C2.42143 9.07828 2 8.06087 2 7V2H3C3.26522 2 3.51957 1.89464 3.70711 1.70711C3.89464 1.51957 4 1.26522 4 1C4 0.734784 3.89464 0.48043 3.70711 0.292893C3.51957 0.105357 3.26522 0 3 0H1C0.734784 0 0.48043 0.105357 0.292893 0.292893C0.105357 0.48043 0 0.734784 0 1V7C0.00240552 8.41658 0.50557 9.78669 1.42055 10.8681C2.33552 11.9496 3.60338 12.6727 5 12.9097V13.5C5 15.2239 5.68482 16.8772 6.90381 18.0962C8.12279 19.3152 9.77609 20 11.5 20C13.2239 20 14.8772 19.3152 16.0962 18.0962C17.3152 16.8772 18 15.2239 18 13.5V11.8157C18.667 11.5812 19.2294 11.1181 19.5876 10.5085C19.9458 9.89895 20.0765 9.18224 19.9567 8.48544C19.8369 7.78864 19.4743 7.15676 18.933 6.70182C18.3918 6.24687 17.707 5.99824 17 6V6ZM17 10C16.8022 10 16.6089 9.94135 16.4444 9.83147C16.28 9.72159 16.1518 9.56541 16.0761 9.38268C16.0004 9.19996 15.9806 8.99889 16.0192 8.80491C16.0578 8.61093 16.153 8.43275 16.2929 8.29289C16.4327 8.15304 16.6109 8.0578 16.8049 8.01921C16.9989 7.98063 17.2 8.00043 17.3827 8.07612C17.5654 8.15181 17.7216 8.27998 17.8315 8.44443C17.9414 8.60888 18 8.80222 18 9C17.9997 9.26511 17.8942 9.51927 17.7067 9.70673C17.5193 9.89419 17.2651 9.99966 17 10Z" fill="#3EB1C8"/>
</svg>
