<svg width="16" height="21" viewBox="0 0 16 21" fill="none" xmlns="http://www.w3.org/2000/svg">
<path d="M12.37 11.7898C12.2479 11.7412 12.1174 11.7172 11.9859 11.719C11.8545 11.7208 11.7247 11.7486 11.604 11.8006C11.4833 11.8526 11.374 11.9278 11.2824 12.0221C11.1908 12.1163 11.1186 12.2277 11.07 12.3498C11.0214 12.4719 10.9974 12.6024 10.9992 12.7339C11.001 12.8653 11.0288 12.9951 11.0808 13.1158C11.1328 13.2365 11.208 13.3458 11.3023 13.4374C11.3965 13.529 11.5079 13.6012 11.63 13.6498C13.09 14.2298 14 15.1298 14 15.9998C14 17.4198 11.54 18.9998 8 18.9998C4.46 18.9998 2 17.4198 2 15.9998C2 15.1298 2.91 14.2298 4.37 13.6498C4.61665 13.5517 4.81422 13.3596 4.91924 13.1158C5.02426 12.872 5.02813 12.5965 4.93 12.3498C4.83187 12.1031 4.63978 11.9056 4.39598 11.8006C4.15218 11.6955 3.87665 11.6917 3.63 11.7898C1.36 12.6898 0 14.2598 0 15.9998C0 18.7998 3.51 20.9998 8 20.9998C12.49 20.9998 16 18.7998 16 15.9998C16 14.2598 14.64 12.6898 12.37 11.7898ZM7 8.8598V15.9998C7 16.265 7.10536 16.5194 7.29289 16.7069C7.48043 16.8944 7.73478 16.9998 8 16.9998C8.26522 16.9998 8.51957 16.8944 8.70711 16.7069C8.89464 16.5194 9 16.265 9 15.9998V8.8598C9.94266 8.61641 10.7642 8.03757 11.3106 7.23179C11.857 6.42601 12.0908 5.44861 11.9681 4.4828C11.8454 3.51699 11.3747 2.62907 10.6442 1.98548C9.91373 1.34189 8.97357 0.986816 8 0.986816C7.02643 0.986816 6.08627 1.34189 5.35577 1.98548C4.62526 2.62907 4.15456 3.51699 4.03188 4.4828C3.90921 5.44861 4.14299 6.42601 4.6894 7.23179C5.23581 8.03757 6.05734 8.61641 7 8.8598ZM8 2.9998C8.39556 2.9998 8.78224 3.1171 9.11114 3.33686C9.44004 3.55662 9.69638 3.86898 9.84776 4.23443C9.99913 4.59988 10.0387 5.00202 9.96157 5.38998C9.8844 5.77794 9.69392 6.13431 9.41421 6.41401C9.13451 6.69372 8.77814 6.8842 8.39018 6.96137C8.00222 7.03854 7.60009 6.99893 7.23463 6.84756C6.86918 6.69618 6.55682 6.43984 6.33706 6.11094C6.1173 5.78204 6 5.39536 6 4.9998C6 4.46937 6.21071 3.96066 6.58579 3.58559C6.96086 3.21051 7.46957 2.9998 8 2.9998Z" fill="#3EB1C8"/>
</svg>
