<?xml version="1.0" encoding="utf-8"?>
<svg viewBox="2.21 6.359 158.49 50.072" width="158.49" height="50.072" xmlns="http://www.w3.org/2000/svg">
  <path d="M 60.59 34.799 L 54.32 34.799 L 53.32 37.739 L 48.63 37.739 L 55.06 20.839 L 59.86 20.839 L 66.29 37.739 L 61.61 37.739 L 60.59 34.799 Z M 59.42 31.459 L 57.42 25.839 L 55.42 31.459 L 59.42 31.459 Z" style="fill:#124471"/>
  <path d="M 76.83 25.129 C 76.397 24.767 75.912 24.474 75.39 24.259 C 74.948 24.081 74.477 23.987 74 23.979 C 73.507 23.958 73.022 24.103 72.62 24.389 C 72.277 24.627 72.075 25.021 72.08 25.439 C 72.065 25.712 72.163 25.979 72.35 26.179 C 72.551 26.387 72.788 26.556 73.05 26.679 C 73.369 26.837 73.704 26.961 74.05 27.049 L 75.14 27.389 C 76.344 27.725 77.431 28.39 78.28 29.309 C 78.978 30.194 79.333 31.302 79.28 32.429 C 79.29 33.233 79.141 34.032 78.84 34.779 C 78.562 35.472 78.128 36.092 77.57 36.589 C 76.968 37.114 76.263 37.509 75.5 37.749 C 74.61 38.041 73.677 38.183 72.74 38.169 C 70.609 38.17 68.531 37.502 66.8 36.259 L 68.68 32.719 C 69.257 33.252 69.915 33.691 70.63 34.019 C 71.228 34.297 71.88 34.444 72.54 34.449 C 73.118 34.492 73.69 34.313 74.14 33.949 C 74.468 33.669 74.658 33.26 74.66 32.829 C 74.666 32.602 74.622 32.376 74.53 32.169 C 74.421 31.967 74.267 31.792 74.08 31.659 C 73.827 31.478 73.551 31.33 73.26 31.219 L 72.04 30.769 C 71.48 30.589 70.92 30.399 70.37 30.179 C 69.843 29.972 69.354 29.682 68.92 29.319 C 68.492 28.943 68.151 28.479 67.92 27.959 C 67.634 27.307 67.497 26.6 67.52 25.889 C 67.509 25.108 67.652 24.334 67.94 23.609 C 68.477 22.262 69.571 21.215 70.94 20.739 C 71.719 20.459 72.542 20.321 73.37 20.329 C 74.254 20.336 75.135 20.454 75.99 20.679 C 76.905 20.902 77.788 21.238 78.62 21.679 L 76.83 25.129 Z" style="fill:#124471"/>
  <path d="M 86.13 27.359 L 92.47 27.359 L 92.47 20.839 L 96.86 20.839 L 96.86 37.739 L 92.47 37.739 L 92.47 30.739 L 86.13 30.739 L 86.13 37.739 L 81.74 37.739 L 81.74 20.839 L 86.13 20.839 L 86.13 27.359 Z" style="fill:#124471"/>
  <path d="M 108.54 24.559 L 103.26 24.559 L 103.26 27.379 L 108.03 27.379 L 108.03 31.129 L 103.22 31.129 L 103.22 37.769 L 98.82 37.769 L 98.82 20.869 L 108.5 20.869 L 108.54 24.559 Z" style="fill:#124471"/>
  <path d="M 109.23 29.289 C 109.212 26.908 110.157 24.622 111.85 22.949 C 112.697 22.125 113.7 21.479 114.8 21.049 C 117.232 20.142 119.908 20.142 122.34 21.049 C 123.456 21.477 124.476 22.122 125.34 22.949 C 127.051 24.61 128.003 26.904 127.97 29.289 C 127.979 30.493 127.744 31.687 127.28 32.799 C 126.355 34.975 124.581 36.68 122.37 37.519 C 119.941 38.439 117.259 38.439 114.83 37.519 C 111.444 36.198 109.228 32.923 109.26 29.289 L 109.23 29.289 Z M 113.83 29.289 C 113.82 29.929 113.95 30.564 114.21 31.149 C 114.699 32.269 115.612 33.15 116.75 33.599 C 117.922 34.066 119.228 34.066 120.4 33.599 C 120.969 33.366 121.489 33.027 121.93 32.599 C 122.355 32.174 122.694 31.671 122.93 31.119 C 123.437 29.931 123.437 28.587 122.93 27.399 C 122.694 26.846 122.355 26.344 121.93 25.919 C 121.021 25.07 119.824 24.599 118.58 24.599 C 117.953 24.596 117.332 24.715 116.75 24.949 C 115.612 25.397 114.699 26.278 114.21 27.399 C 113.946 27.993 113.816 28.638 113.83 29.289 Z" style="fill:#124471"/>
  <path d="M 144.35 37.739 L 138.89 37.739 L 134.7 31.239 L 134.7 37.739 L 130.3 37.739 L 130.3 20.839 L 137.14 20.839 C 137.979 20.821 138.814 20.964 139.6 21.259 C 140.256 21.502 140.851 21.888 141.34 22.389 C 141.782 22.869 142.122 23.433 142.34 24.049 C 142.574 24.689 142.692 25.367 142.69 26.049 C 142.739 27.167 142.412 28.269 141.76 29.179 C 141.062 30.025 140.088 30.598 139.01 30.799 L 144.35 37.739 Z M 134.7 28.389 L 135.52 28.389 C 136.227 28.434 136.929 28.248 137.52 27.859 C 138.437 27.029 138.437 25.588 137.52 24.759 C 136.93 24.365 136.227 24.179 135.52 24.229 L 134.7 24.229 L 134.7 28.389 Z" style="fill:#124471"/>
  <path d="M 145.89 20.839 L 152.39 20.839 C 153.508 20.83 154.615 21.069 155.63 21.539 C 156.616 21.987 157.512 22.615 158.27 23.389 C 159.027 24.162 159.631 25.071 160.05 26.069 C 160.48 27.088 160.701 28.183 160.7 29.289 C 160.687 31.489 159.823 33.6 158.29 35.179 C 157.536 35.961 156.64 36.592 155.65 37.039 C 154.627 37.505 153.514 37.743 152.39 37.739 L 145.89 37.739 L 145.89 20.839 Z M 150.28 34.019 L 151.28 34.019 C 151.963 34.025 152.642 33.903 153.28 33.659 C 153.848 33.436 154.363 33.095 154.79 32.659 C 155.206 32.235 155.527 31.727 155.73 31.169 C 155.956 30.565 156.068 29.924 156.06 29.279 C 156.067 28.636 155.952 27.998 155.72 27.399 C 155.513 26.837 155.189 26.326 154.77 25.899 C 154.341 25.464 153.827 25.124 153.26 24.899 C 152.622 24.653 151.943 24.531 151.26 24.539 L 150.26 24.539 L 150.28 34.019 Z" style="fill:#124471"/>
  <path d="M 57.54 47.239 L 57.54 41.439 L 59.14 41.439 L 59.14 55.739 L 57.54 55.739 L 57.54 48.739 L 50.22 48.739 L 50.22 55.739 L 48.62 55.739 L 48.62 41.439 L 50.22 41.439 L 50.22 47.239 L 57.54 47.239 Z" style="fill:#124471"/>
  <path d="M 77.71 48.609 C 77.741 54.351 71.543 57.974 66.555 55.129 C 61.566 52.285 61.528 45.106 66.485 42.208 C 67.628 41.541 68.927 41.189 70.25 41.189 C 74.364 41.167 77.71 44.495 77.71 48.609 Z M 64.39 48.609 C 64.428 53.127 69.344 55.91 73.238 53.617 C 77.132 51.324 77.084 45.676 73.151 43.45 C 72.267 42.949 71.267 42.687 70.25 42.689 C 67.009 42.716 64.395 45.348 64.39 48.589 L 64.39 48.609 Z" style="fill:#124471"/>
  <path d="M 87.79 44.229 C 87.36 43.255 86.384 42.639 85.32 42.669 C 84.047 42.612 82.977 43.615 82.95 44.889 C 82.95 46.119 84.22 46.689 85.19 47.129 L 86.14 47.549 C 88 48.359 89.57 49.289 89.57 51.549 C 89.847 55.013 86.27 57.478 83.132 55.986 C 81.675 55.293 80.699 53.876 80.57 52.269 L 82.12 51.829 C 82.287 53.303 83.507 54.434 84.99 54.489 C 86.569 54.522 87.881 53.278 87.93 51.699 C 87.93 50.029 86.62 49.459 85.29 48.859 L 84.42 48.479 C 82.75 47.719 81.31 46.859 81.31 44.809 C 81.368 42.68 83.185 41.026 85.31 41.169 C 86.863 41.152 88.294 42.01 89.01 43.389 L 87.79 44.229 Z" style="fill:#124471"/>
  <path d="M 93.92 55.739 L 92.33 55.739 L 92.33 41.439 L 94.68 41.439 C 95.913 41.319 97.154 41.585 98.23 42.199 C 99.266 42.958 99.867 44.175 99.84 45.459 C 99.859 46.632 99.362 47.754 98.48 48.529 C 97.501 49.254 96.296 49.608 95.08 49.529 L 93.92 49.529 L 93.92 55.739 Z M 93.92 47.999 L 95.03 47.999 C 96.8 47.999 98.3 47.469 98.3 45.419 C 98.3 43.089 96.42 42.919 94.56 42.919 L 93.97 42.919 L 93.92 47.999 Z" style="fill:#124471"/>
  <path d="M 104.5 55.739 L 102.91 55.739 L 102.91 41.439 L 104.5 41.439 L 104.5 55.739 Z" style="fill:#124471"/>
  <path d="M 111.39 55.739 L 109.79 55.739 L 109.79 42.919 L 106.34 42.919 L 106.34 41.439 L 114.88 41.439 L 114.88 42.919 L 111.39 42.919 L 111.39 55.739 Z" style="fill:#124471"/>
  <path d="M 117.3 51.679 L 115.57 55.739 L 113.83 55.739 L 120.43 40.739 L 126.86 55.739 L 125.1 55.739 L 123.41 51.679 L 117.3 51.679 Z M 120.39 44.469 L 117.94 50.199 L 122.78 50.199 L 120.39 44.469 Z" style="fill:#124471"/>
  <path d="M 130.75 54.259 L 134.7 54.259 L 134.7 55.739 L 129.16 55.739 L 129.16 41.439 L 130.75 41.439 L 130.75 54.259 Z" style="fill:#124471"/>
  <path d="M 27.03 38.589 C 25.071 38.587 23.116 38.406 21.19 38.049 L 21.19 53.609 L 32.66 53.609 L 32.66 38.129 C 30.801 38.454 28.917 38.608 27.03 38.589 Z" style="fill:#124471"/>
  <path d="M 41.14 19.549 C 33.581 28.065 20.279 28.065 12.72 19.549 L 2.21 19.549 C 7.14 28.809 16.37 35.059 26.93 35.059 C 37.49 35.059 46.72 28.809 51.65 19.549 L 41.14 19.549 Z" style="fill:#124471"/>
  <path d="M 33.79 13.019 C 33.959 18.32 28.326 21.816 23.65 19.312 C 18.975 16.807 18.764 10.181 23.27 7.384 C 24.207 6.802 25.27 6.454 26.37 6.369 C 30.254 6.159 33.575 9.135 33.79 13.019 Z" style="fill:#124471"/>
</svg>