<svg width="24" height="24" viewBox="0 0 24 24" fill="none" xmlns="http://www.w3.org/2000/svg">
<path d="M4.78998 10.5004H2.78998C2.52476 10.5004 2.27041 10.6057 2.08287 10.7933C1.89533 10.9808 1.78998 11.2352 1.78998 11.5004C1.78998 11.7656 1.89533 12.02 2.08287 12.2075C2.27041 12.395 2.52476 12.5004 2.78998 12.5004H4.78998C5.05519 12.5004 5.30955 12.395 5.49708 12.2075C5.68462 12.02 5.78998 11.7656 5.78998 11.5004C5.78998 11.2352 5.68462 10.9808 5.49708 10.7933C5.30955 10.6057 5.05519 10.5004 4.78998 10.5004ZM21.57 7.66038V7.60038C21.2835 7.25017 20.9214 6.96931 20.511 6.77882C20.1006 6.58832 19.6524 6.49314 19.2 6.50038H11.27C10.5352 6.49378 9.82352 6.7571 9.26998 7.24038C8.75298 7.69592 8.41307 8.31909 8.30998 9.00038L7.42998 14.0004C7.3543 14.4322 7.37418 14.8753 7.48821 15.2986C7.60224 15.7219 7.80765 16.115 8.08998 16.4504C8.37084 16.7846 8.72126 17.0535 9.11679 17.2383C9.51231 17.4231 9.94341 17.5194 10.38 17.5204H18.32C19.0332 17.5312 19.727 17.2874 20.2768 16.833C20.8266 16.3785 21.1964 15.7429 21.32 15.0404L22.2 10.0404C22.2693 9.62169 22.249 9.19305 22.1404 8.78278C22.0318 8.37252 21.8374 7.98996 21.57 7.66038ZM18.83 8.50038L15.43 11.2604C15.229 11.4224 14.9731 11.5004 14.7158 11.478C14.4586 11.4557 14.22 11.3347 14.05 11.1404L11.72 8.50038H18.83ZM19.31 14.6704C19.2695 14.9052 19.1465 15.1178 18.9632 15.27C18.7799 15.4221 18.5482 15.5038 18.31 15.5004H10.38C10.2348 15.4992 10.0915 15.4663 9.9603 15.4042C9.82905 15.342 9.71292 15.252 9.61998 15.1404C9.5268 15.0294 9.45887 14.8994 9.42088 14.7596C9.38289 14.6197 9.37576 14.4733 9.39998 14.3304L10.2 9.80038L12.55 12.4604C13.0615 13.0418 13.778 13.4028 14.5496 13.468C15.3212 13.5333 16.0881 13.2976 16.69 12.8104L20.13 10.0004L19.31 14.6704ZM5.78998 6.50038H2.78998C2.52476 6.50038 2.27041 6.60574 2.08287 6.79328C1.89533 6.98081 1.78998 7.23517 1.78998 7.50038C1.78998 7.7656 1.89533 8.01996 2.08287 8.20749C2.27041 8.39503 2.52476 8.50038 2.78998 8.50038H5.78998C6.05519 8.50038 6.30955 8.39503 6.49708 8.20749C6.68462 8.01996 6.78998 7.7656 6.78998 7.50038C6.78998 7.23517 6.68462 6.98081 6.49708 6.79328C6.30955 6.60574 6.05519 6.50038 5.78998 6.50038Z" fill="#3EB1C8"/>
</svg>
