<svg width="20" height="21" viewBox="0 0 20 21" fill="none" xmlns="http://www.w3.org/2000/svg">
<path d="M13.8985 11.6645L13.8943 11.6627C13.8309 11.636 13.7699 11.605 13.7059 11.5796C14.4202 11.0198 14.9979 10.3049 15.3953 9.48905C15.7928 8.67318 15.9995 7.77764 16 6.87012C15.9977 6.65925 15.9828 6.44871 15.9554 6.23963C15.9707 6.19987 15.9833 6.15913 15.9932 6.11768L16.2744 3.72022C16.362 2.96272 16.1583 2.20027 15.7048 1.5873C15.2512 0.974339 14.5816 0.556686 13.8316 0.418945L13.0416 0.275385C11.0307 -0.0917951 8.96994 -0.0917951 6.95905 0.275385L6.16805 0.418945C5.41815 0.556791 4.74865 0.974487 4.29516 1.58744C3.84167 2.20039 3.63808 2.96278 3.72562 3.72022L4.00687 6.11768C4.01672 6.15915 4.02937 6.19991 4.04471 6.23968C4.01727 6.44874 4.00235 6.65927 4.00003 6.87012C4.00053 7.77763 4.20731 8.67317 4.60475 9.48903C5.00218 10.3049 5.57988 11.0197 6.29416 11.5795C6.23016 11.6049 6.16916 11.6359 6.1058 11.6627L6.10153 11.6645C4.46433 12.3526 3.04117 13.4664 1.97982 14.8903C0.918475 16.3141 0.257647 17.9962 0.0659544 19.7617C0.037205 20.0254 0.114372 20.2897 0.280481 20.4964C0.446589 20.7032 0.688032 20.8355 0.951694 20.8643C1.21536 20.893 1.47964 20.8158 1.68641 20.6497C1.89317 20.4836 2.02549 20.2422 2.05423 19.9785C2.19494 18.6807 2.65314 17.4375 3.38836 16.3588C4.12357 15.2801 5.11316 14.399 6.26968 13.7935L9.29303 16.8169C9.38587 16.9098 9.49609 16.9835 9.6174 17.0337C9.73872 17.084 9.86875 17.1099 10.0001 17.1099C10.1314 17.1099 10.2614 17.084 10.3827 17.0337C10.504 16.9835 10.6143 16.9098 10.7071 16.8169L13.7304 13.7935C14.8869 14.399 15.8765 15.2801 16.6117 16.3588C17.3469 17.4375 17.8051 18.6807 17.9458 19.9785C17.9725 20.2233 18.0885 20.4496 18.2717 20.6141C18.4549 20.7787 18.6923 20.8698 18.9385 20.8701C18.9752 20.8701 19.0119 20.8682 19.0484 20.8643C19.312 20.8355 19.5535 20.7032 19.7196 20.4964C19.8857 20.2897 19.9629 20.0254 19.9341 19.7617C19.7424 17.9962 19.0816 16.3142 18.0203 14.8903C16.9589 13.4664 15.5357 12.3526 13.8985 11.6645ZM5.71194 3.48682C5.68282 3.23441 5.75069 2.98036 5.90182 2.77611C6.05296 2.57186 6.27605 2.43267 6.52594 2.38672L7.31647 2.24317C9.09085 1.91895 10.9093 1.91895 12.6837 2.24317L13.4737 2.38672C13.7236 2.43256 13.9468 2.57171 14.0981 2.77597C14.2493 2.98023 14.3172 3.23434 14.2881 3.48682L14.1104 5.00098H5.88968L5.71194 3.48682ZM10 14.6958L8.34976 13.0455C9.43751 12.8117 10.5626 12.8117 11.6503 13.0455L10 14.6958ZM10 10.8701C8.96218 10.8689 7.96532 10.4648 7.21953 9.74308C6.47373 9.02132 6.03724 8.03823 6.00203 7.00098H13.9981C13.9629 8.03825 13.5264 9.02135 12.7806 9.74312C12.0348 10.4649 11.0379 10.8689 10 10.8701Z" fill="#3EB1C8"/>
</svg>
