<svg width="24" height="24" viewBox="0 0 24 24" fill="none" xmlns="http://www.w3.org/2000/svg">
<path d="M19.44 13.0004C19.22 13.0004 18.99 12.9304 18.77 12.8804C18.3245 12.7822 17.8866 12.6518 17.46 12.4904C16.9961 12.3216 16.4861 12.3304 16.0283 12.515C15.5704 12.6996 15.1971 13.047 14.98 13.4904L14.76 13.9404C13.786 13.3985 12.891 12.7256 12.1 11.9404C11.3147 11.1494 10.6418 10.2544 10.1 9.28036L10.52 9.00036C10.9633 8.78327 11.3108 8.40989 11.4954 7.95205C11.68 7.49421 11.6888 6.98427 11.52 6.52036C11.3612 6.09278 11.2309 5.65515 11.13 5.21036C11.08 4.99036 11.04 4.76036 11.01 4.53036C10.8885 3.82598 10.5196 3.1881 9.9696 2.7316C9.4196 2.27509 8.72467 2.02997 8.00998 2.04036H5.00998C4.57901 2.03631 4.15223 2.12517 3.75869 2.30089C3.36515 2.4766 3.01409 2.73505 2.72941 3.05864C2.44473 3.38222 2.23311 3.76335 2.10897 4.17607C1.98482 4.58879 1.95106 5.02342 2.00998 5.45036C2.54272 9.63974 4.45601 13.5322 7.44763 16.513C10.4393 19.4938 14.3387 21.3929 18.53 21.9104H18.91C19.6474 21.9114 20.3594 21.6409 20.91 21.1504C21.2263 20.8674 21.4791 20.5205 21.6514 20.1327C21.8238 19.7448 21.9119 19.3248 21.91 18.9004V15.9004C21.8977 15.2057 21.6448 14.5369 21.1943 14.008C20.7439 13.4791 20.1238 13.123 19.44 13.0004ZM19.94 19.0004C19.9398 19.1423 19.9094 19.2827 19.8508 19.412C19.7921 19.5413 19.7066 19.6566 19.6 19.7504C19.4886 19.8474 19.358 19.9198 19.2167 19.9629C19.0754 20.0059 18.9266 20.0187 18.78 20.0004C15.0349 19.5202 11.5562 17.8068 8.89269 15.1306C6.22917 12.4545 4.53239 8.96769 4.06998 5.22036C4.05406 5.07387 4.06801 4.92569 4.11098 4.78475C4.15395 4.64381 4.22505 4.51304 4.31998 4.40036C4.41369 4.29369 4.52904 4.2082 4.65836 4.14957C4.78767 4.09095 4.92799 4.06054 5.06998 4.06036H8.06998C8.30253 4.05518 8.5296 4.13124 8.71212 4.27543C8.89464 4.41962 9.02119 4.62293 9.06998 4.85036C9.10998 5.12369 9.15998 5.39369 9.21998 5.66036C9.3355 6.1875 9.48924 6.70554 9.67998 7.21036L8.27998 7.86036C8.16028 7.91528 8.0526 7.9933 7.96314 8.08995C7.87367 8.1866 7.80418 8.29997 7.75865 8.42355C7.71312 8.54713 7.69245 8.67849 7.69783 8.81008C7.7032 8.94167 7.73452 9.0709 7.78998 9.19036C9.22918 12.2731 11.7072 14.7512 14.79 16.1904C15.0334 16.2904 15.3065 16.2904 15.55 16.1904C15.6747 16.1457 15.7893 16.0768 15.8871 15.9875C15.985 15.8983 16.0641 15.7905 16.12 15.6704L16.74 14.2704C17.2569 14.4552 17.7846 14.6088 18.32 14.7304C18.5866 14.7904 18.8566 14.8404 19.13 14.8804C19.3574 14.9291 19.5607 15.0557 19.7049 15.2382C19.8491 15.4207 19.9252 15.6478 19.92 15.8804L19.94 19.0004Z" fill="#3EB1C8"/>
</svg>
